<svg width="61" height="61" viewBox="0 0 61 61" fill="none" xmlns="http://www.w3.org/2000/svg">
<mask id="mask0_9_97" style="mask-type:alpha" maskUnits="userSpaceOnUse" x="0" y="0" width="61" height="61">
<rect width="61" height="61" fill="#4E53DC"/>
</mask>
<g mask="url(#mask0_9_97)">
<path d="M28.7476 42.3162H32.3034V28.0098H28.7476V42.3162ZM30.4931 23.8135C31.0535 23.8135 31.5197 23.6297 31.8917 23.262C32.264 22.8939 32.4502 22.4298 32.4502 21.8698C32.4502 21.3098 32.2663 20.8436 31.8986 20.4712C31.531 20.0993 31.0671 19.9133 30.5071 19.9133C29.9466 19.9133 29.4805 20.0972 29.1085 20.4649C28.7362 20.8326 28.55 21.2964 28.55 21.8564C28.55 22.4164 28.7338 22.8826 29.1015 23.255C29.4692 23.6273 29.9331 23.8135 30.4931 23.8135ZM30.5058 54.1324C27.2377 54.1324 24.1652 53.5114 21.2885 52.2694C18.4113 51.0269 15.9086 49.341 13.7804 47.2115C11.6526 45.082 9.96851 42.5816 8.72818 39.7104C7.48784 36.8387 6.86768 33.7705 6.86768 30.5057C6.86768 27.2376 7.48869 24.1651 8.73072 21.2884C9.97317 18.4112 11.6591 15.9085 13.7886 13.7803C15.9181 11.6525 18.4185 9.96842 21.2897 8.72809C24.1614 7.48776 27.2296 6.86759 30.4944 6.86759C33.7625 6.86759 36.835 7.48861 39.7117 8.73063C42.5889 9.97309 45.0916 11.6591 47.2198 13.7885C49.3476 15.918 51.0317 18.4184 52.272 21.2896C53.5123 24.1613 54.1325 27.2295 54.1325 30.4943C54.1325 33.7624 53.5115 36.8349 52.2695 39.7116C51.027 42.5888 49.341 45.0915 47.2116 47.2197C45.0821 49.3475 42.5817 51.0316 39.7105 52.2719C36.8388 53.5123 33.7706 54.1324 30.5058 54.1324ZM30.4995 50.5766C36.0865 50.5766 40.8294 48.6276 44.7283 44.7295C48.6273 40.831 50.5767 36.0881 50.5767 30.5006C50.5767 24.9136 48.6277 20.1707 44.7296 16.2718C40.8311 12.3728 36.0882 10.4234 30.5007 10.4234C24.9137 10.4234 20.1708 12.3724 16.2718 16.2705C12.3729 20.169 10.4235 24.9119 10.4235 30.4994C10.4235 36.0864 12.3725 40.8293 16.2706 44.7283C20.1691 48.6272 24.912 50.5766 30.4995 50.5766Z" fill="#4E53DC"/>
</g>
</svg>
