<svg width="45" height="45" viewBox="0 0 45 45" fill="none" xmlns="http://www.w3.org/2000/svg">
<mask id="mask0_10_355" style="mask-type:alpha" maskUnits="userSpaceOnUse" x="0" y="0" width="45" height="45">
<rect width="45" height="45" fill="#D9D9D9"/>
</mask>
<g mask="url(#mask0_10_355)">
<path d="M21.1932 10.4373V3.57967H23.8163V10.4373H21.1932ZM32.4807 15.1941L30.6563 13.3176L35.3907 8.45247L37.2296 10.3581L32.4807 15.1941ZM35.3274 24.8309V22.1596H42.0615V24.8309H35.3274ZM35.3907 38.5146L30.6563 33.6638L32.499 31.7878L37.2765 36.5942L35.3907 38.5146ZM12.5373 15.2122L7.75272 10.3399L9.62397 8.47109L14.3616 13.3544L12.5373 15.2122ZM11.791 37.0677H19.8535C20.7801 37.0677 21.5735 36.7334 22.2338 36.0648C22.8944 35.3962 23.2248 34.5866 23.2248 33.6361C23.2248 32.6852 22.9054 31.874 22.2666 31.2025C21.6279 30.5314 20.8451 30.1958 19.9182 30.1958H17.8979L17.1183 28.2936C16.6508 27.1689 15.9187 26.2801 14.9218 25.6271C13.9246 24.9741 12.823 24.6476 11.6171 24.6476C9.94116 24.6476 8.52054 25.2423 7.35522 26.4319C6.18991 27.6215 5.60726 29.0677 5.60726 30.7705C5.60726 32.5221 6.20788 34.0095 7.40913 35.2328C8.61069 36.4561 10.0713 37.0677 11.791 37.0677ZM11.791 39.739C9.34976 39.739 7.27163 38.8656 5.55663 37.1188C3.84163 35.372 2.98413 33.2571 2.98413 30.7739C2.98413 28.3273 3.82288 26.2494 5.50038 24.5402C7.17788 22.8309 9.21632 21.9763 11.6157 21.9763C13.3876 21.9763 15.0055 22.4826 16.4696 23.4952C17.9334 24.5082 18.9966 25.8513 19.6594 27.5245C21.3323 27.5245 22.7788 28.0936 23.9991 29.2316C25.2198 30.3699 25.836 31.8645 25.8479 33.7153C25.8094 35.3813 25.2148 36.8017 24.0638 37.9766C22.9129 39.1516 21.5143 39.739 19.868 39.739H11.791ZM25.8118 33.3482C25.7012 32.9056 25.5937 32.4731 25.4893 32.0508C25.3846 31.6288 25.2769 31.1965 25.1663 30.7538C26.646 30.1304 27.838 29.1676 28.7424 27.8654C29.6471 26.5635 30.0994 25.1065 30.0994 23.4943C30.0994 21.3561 29.3591 19.5327 27.8785 18.0243C26.3979 16.5156 24.6044 15.7612 22.4982 15.7612C20.5476 15.7612 18.8607 16.4201 17.4376 17.7379C16.0144 19.0554 15.1971 20.705 14.9855 22.6866C14.5302 22.573 14.0655 22.4685 13.5915 22.373C13.1174 22.2772 12.6555 22.1695 12.2059 22.0498C12.5712 19.4511 13.734 17.3081 15.6943 15.6209C17.6546 13.9336 19.9232 13.0899 22.5001 13.0899C25.3357 13.0899 27.7484 14.1041 29.738 16.1326C31.7277 18.161 32.7226 20.6205 32.7226 23.511C32.7226 25.7361 32.0866 27.7397 30.8148 29.5218C29.5432 31.3039 27.8755 32.5794 25.8118 33.3482Z" fill="#4E53DC"/>
</g>
</svg>
