<svg width="35" height="33" viewBox="0 0 35 33" fill="none" xmlns="http://www.w3.org/2000/svg">
<path d="M9.63054 21.2686H11.6766V14.8955H9.63054V17.0588H6.81804V19.1054H9.63054V21.2686ZM13.741 19.1054H28.1912V17.0588H13.741V19.1054ZM23.3321 14.3457H25.3787V12.1819H28.1912V10.1358H25.3787V7.97254H23.3321V14.3457ZM6.81804 12.1819H21.2677V10.1358H6.81804V12.1819ZM11.1648 32.0968V28.3847H3.26632C2.37757 28.3847 1.62194 28.0735 0.999443 27.451C0.377256 26.8288 0.0661621 26.0747 0.0661621 25.1888V4.09926C0.0661621 3.21332 0.377256 2.45926 0.999443 1.83707C1.62194 1.21457 2.37616 0.90332 3.2621 0.90332H31.7377C32.6237 0.90332 33.3779 1.21457 34.0004 1.83707C34.6226 2.45926 34.9337 3.21332 34.9337 4.09926V25.1888C34.9337 26.0747 34.6226 26.8288 34.0004 27.451C33.3779 28.0735 32.6223 28.3847 31.7335 28.3847H23.8351V32.0968H11.1648ZM3.26632 25.7616H31.7335C31.8779 25.7616 32.0102 25.7014 32.1305 25.5811C32.2505 25.4608 32.3105 25.3286 32.3105 25.1846V4.10347C32.3105 3.9591 32.2505 3.82691 32.1305 3.70691C32.0102 3.5866 31.8779 3.52644 31.7335 3.52644H3.26632C3.12194 3.52644 2.9896 3.5866 2.86929 3.70691C2.74929 3.82691 2.68929 3.9591 2.68929 4.10347V25.1846C2.68929 25.3286 2.74929 25.4608 2.86929 25.5811C2.9896 25.7014 3.12194 25.7616 3.26632 25.7616Z" fill="#D9D9D9"/>
</svg>
