<svg width="33" height="41" viewBox="0 0 33 41" fill="none" xmlns="http://www.w3.org/2000/svg">
<path d="M13.8769 40.0253V36.0967H4.10348C3.21473 36.0967 2.45926 35.7854 1.83707 35.1629C1.21457 34.5408 0.90332 33.7867 0.90332 32.9008V8.0992C0.90332 7.21326 1.21457 6.4592 1.83707 5.83701C2.45926 5.21451 3.21473 4.90326 4.10348 4.90326H13.8769V0.97467H16.5V40.0253H13.8769ZM4.10348 33.4736H13.8769V28.6722H7.78316V26.049H13.8769V21.8069H7.78316V19.1837H13.8769V14.9509H7.78316V12.3278H13.8769V7.52639H4.10348C3.9591 7.52639 3.82691 7.58654 3.70691 7.70686C3.5866 7.82686 3.52644 7.95904 3.52644 8.10342V32.8965C3.52644 33.0409 3.5866 33.1731 3.70691 33.2931C3.82691 33.4134 3.9591 33.4736 4.10348 33.4736ZM20.2411 7.52639V4.90326H29.0771C29.9655 4.90326 30.721 5.21451 31.3435 5.83701C31.966 6.4592 32.2772 7.21326 32.2772 8.0992V32.9008C32.2772 33.7867 31.966 34.5408 31.3435 35.1629C30.721 35.7854 29.9655 36.0967 29.0771 36.0967H20.2411V33.4736H29.0771C29.2211 33.4736 29.3533 33.4134 29.4736 33.2931C29.5939 33.1731 29.6541 33.0409 29.6541 32.8965V8.10342C29.6541 7.95904 29.5939 7.82686 29.4736 7.70686C29.3533 7.58654 29.2211 7.52639 29.0771 7.52639H20.2411ZM20.2411 21.8069V19.1837H26.3349V21.8069H20.2411ZM20.2411 14.9509V12.3278H26.3349V14.9509H20.2411Z" fill="#D9D9D9"/>
</svg>
